<?xml version="1.0" standalone="no"?>
<!DOCTYPE svg PUBLIC "-//W3C//DTD SVG 20010904//EN"
 "http://www.w3.org/TR/2001/REC-SVG-20010904/DTD/svg10.dtd">
<svg version="1.0" xmlns="http://www.w3.org/2000/svg"
 width="700.000000pt" height="700.000000pt" viewBox="0 0 700.000000 700.000000"
 preserveAspectRatio="xMidYMid meet">
<metadata>
Created by potrace 1.14, written by Peter Selinger 2001-2017
</metadata>
<g transform="translate(0.000000,700.000000) scale(0.100000,-0.100000)"
fill="#000000" stroke="none">
<path d="M0 3500 l0 -3500 3500 0 3500 0 0 3500 0 3500 -3500 0 -3500 0 0
-3500z m1999 2625 c230 -60 363 -257 400 -589 14 -123 14 -579 0 -702 -23
-206 -81 -354 -179 -453 -96 -97 -217 -141 -395 -141 -345 0 -528 190 -575
595 -13 120 -13 578 1 707 40 367 193 558 479 599 71 10 201 2 269 -16z m1396
-1 c169 -43 287 -161 351 -346 44 -131 56 -225 61 -510 8 -409 -14 -587 -96
-753 -93 -188 -248 -275 -491 -275 -330 0 -509 174 -566 550 -17 116 -19 641
-3 775 50 404 258 601 612 579 43 -3 103 -12 132 -20z m2003 -5 c199 -51 348
-201 381 -383 19 -103 27 -96 -103 -96 l-114 0 -7 48 c-19 134 -106 226 -244
258 -157 38 -329 -9 -401 -107 -44 -61 -62 -129 -62 -228 0 -114 25 -182 90
-243 77 -72 138 -91 320 -96 l152 -4 0 -93 0 -92 -142 -6 c-159 -5 -205 -17
-280 -72 -34 -25 -55 -52 -80 -102 -30 -61 -33 -76 -33 -153 1 -114 24 -180
85 -240 60 -61 123 -82 239 -82 64 0 101 6 146 22 108 40 195 155 195 257 l0
33 115 0 115 0 0 -39 c0 -96 -61 -224 -146 -307 -103 -99 -219 -144 -389 -151
-350 -14 -563 151 -591 458 -15 173 78 347 233 434 l52 29 -71 38 c-167 88
-242 218 -240 418 1 115 25 201 80 286 131 202 410 287 700 213z m-1116 -5
c57 -30 77 -128 38 -192 -52 -85 -203 -80 -247 8 -27 53 -10 145 31 180 38 31
122 33 178 4z m15 -1147 c31 -29 37 -41 40 -88 7 -99 -52 -155 -155 -147 -48
4 -60 10 -89 41 -19 21 -34 49 -35 64 -6 112 39 163 145 163 51 0 61 -4 94
-33z m-2274 -2235 c136 -49 235 -132 283 -236 113 -247 42 -497 -178 -629
l-58 -34 51 -22 c200 -83 302 -297 254 -532 -42 -208 -179 -349 -395 -406 -88
-23 -272 -23 -360 0 -104 27 -208 84 -271 146 -83 83 -139 214 -139 322 l0 29
114 0 114 0 7 -47 c15 -106 81 -200 168 -241 148 -69 351 -46 444 50 67 70 86
118 91 229 5 123 -12 188 -68 252 -74 84 -178 117 -370 117 l-120 0 0 95 0 95
98 0 c180 0 268 26 345 99 75 70 104 171 86 296 -16 112 -58 178 -144 223 -46
25 -59 27 -170 27 -111 0 -124 -2 -177 -28 -91 -45 -153 -131 -165 -228 l-6
-49 -115 0 -115 0 6 66 c14 184 185 366 393 419 88 22 320 14 397 -13z m1922
13 c147 -39 253 -122 318 -251 81 -161 97 -274 97 -684 0 -409 -14 -506 -95
-676 -66 -138 -166 -222 -308 -260 -142 -38 -334 -23 -455 37 -167 82 -270
273 -301 561 -14 122 -14 561 -1 688 34 323 157 511 378 576 96 29 275 33 367
9z m1411 -5 c226 -58 354 -240 393 -555 14 -116 14 -624 0 -740 -47 -384 -214
-571 -529 -591 -55 -4 -114 0 -168 9 -180 33 -287 115 -366 280 -85 178 -100
299 -93 739 5 343 11 398 60 530 67 183 173 285 347 332 84 22 260 20 356 -4z
m-2475 -486 c42 -21 73 -92 64 -146 -17 -96 -109 -137 -217 -96 -93 35 -88
209 7 248 34 14 114 11 146 -6z m20 -1151 c75 -74 48 -202 -48 -234 -40 -13
-107 -5 -140 17 -80 52 -66 206 22 245 11 5 46 7 78 6 49 -3 63 -8 88 -34z"/>
<path d="M1713 5941 c-135 -46 -204 -162 -233 -392 -18 -144 -8 -732 14 -819
55 -216 151 -304 331 -304 181 0 281 92 331 309 17 71 19 123 19 450 0 324 -2
380 -18 450 -51 218 -162 326 -336 325 -31 -1 -79 -9 -108 -19z"/>
<path d="M3125 5947 c-124 -42 -183 -112 -227 -275 -19 -70 -22 -110 -26 -425
-2 -226 0 -378 8 -433 31 -236 116 -354 274 -384 83 -16 144 -7 222 31 92 44
138 114 177 266 21 83 22 108 22 458 -1 411 -5 454 -66 586 -35 76 -96 140
-157 166 -50 21 -177 26 -227 10z"/>
<path d="M3712 2569 c-70 -12 -120 -39 -165 -88 -69 -77 -101 -175 -118 -363
-16 -183 -6 -645 16 -748 34 -154 96 -249 193 -297 49 -24 69 -28 142 -28 73
0 93 4 142 28 94 46 149 130 184 282 17 70 19 125 19 455 0 392 -6 461 -50
567 -62 148 -198 220 -363 192z"/>
<path d="M5115 2570 c-139 -20 -229 -122 -271 -306 -22 -93 -32 -647 -14 -796
20 -174 68 -291 150 -360 51 -45 114 -63 210 -62 169 1 271 105 317 320 25
117 25 772 0 888 -21 99 -63 191 -108 235 -65 66 -175 97 -284 81z"/>
</g>
</svg>
