<svg width="17" height="30" viewBox="0 0 17 30" fill="none" xmlns="http://www.w3.org/2000/svg">
<path d="M5.89844 3.38281C5.89844 1.93307 4.72318 0.757812 3.27344 0.757812C1.82369 0.757812 0.648438 1.93307 0.648438 3.38281H5.89844ZM0.648438 27.1172C0.648438 28.5669 1.82369 29.7422 3.27344 29.7422C4.72318 29.7422 5.89844 28.5669 5.89844 27.1172H0.648438ZM16.6172 3.38281C16.6172 1.93307 15.4419 0.757812 13.9922 0.757812C12.5424 0.757812 11.3672 1.93307 11.3672 3.38281H16.6172ZM11.3672 27.1172C11.3672 28.5669 12.5424 29.7422 13.9922 29.7422C15.4419 29.7422 16.6172 28.5669 16.6172 27.1172H11.3672ZM0.648438 3.38281V27.1172H5.89844V3.38281H0.648438ZM11.3672 3.38281V27.1172H16.6172V3.38281H11.3672Z" fill="#1C1C1E"/>
</svg>
